<?xml version="1.0" encoding="UTF-8"?>
<svg version="1.1" xmlns="http://www.w3.org/2000/svg" width="1536" height="1024">
<path d="M0 0 C506.88 0 1013.76 0 1536 0 C1536 337.92 1536 675.84 1536 1024 C1029.12 1024 522.24 1024 0 1024 C0 686.08 0 348.16 0 0 Z " fill="#FDFDFD" transform="translate(0,0)"/>
<path d="M0 0 C11.9678067 0.65278946 24.33936013 4.58265443 35 10 C35.69351562 10.35191406 36.38703125 10.70382812 37.1015625 11.06640625 C38.39932681 11.72500949 39.69311839 12.39157876 40.98046875 13.0703125 C43.07592345 14.08384331 43.07592345 14.08384331 45.6953125 14.8671875 C49.84661824 16.29021193 53.7314433 18.10928561 57.6875 20 C58.50605469 20.39010254 59.32460938 20.78020508 60.16796875 21.18212891 C66.33126127 24.14515997 72.43460075 27.21665787 78.5 30.375 C79.30655029 30.79136719 80.11310059 31.20773437 80.9440918 31.63671875 C81.694729 32.03246094 82.44536621 32.42820312 83.21875 32.8359375 C84.2077832 33.35486572 84.2077832 33.35486572 85.21679688 33.88427734 C87 35 87 35 88.52929688 36.54541016 C90.45548093 38.4504906 92.66467627 39.17837051 95.1484375 40.171875 C98.01406762 41.45354923 100.44106216 43.19001958 103 45 C102.67 45.99 102.34 46.98 102 48 C99.671875 49.09765625 99.671875 49.09765625 96.75 50.0625 C91.84763336 51.71208013 87.19080238 53.36049502 82.625 55.8125 C78.72059306 57.80924043 74.66492978 59.16384757 70.5 60.5 C65.0533479 62.25477356 60.007708 64.23090723 55 67 C48.73120799 70.43578023 42.34211591 73.03328638 35.625 75.4375 C29.13428903 77.76279343 22.99805311 80.33125109 16.87890625 83.53125 C7.89690213 88.11365645 -1.48726103 91.64392787 -11.0390625 94.82421875 C-13.83822073 95.93575784 -15.65145628 97.16580677 -18 99 C-19.51771154 99.70027743 -21.06226006 100.34447328 -22.625 100.9375 C-23.50285156 101.27523437 -24.38070313 101.61296875 -25.28515625 101.9609375 C-26.18105469 102.30382812 -27.07695313 102.64671875 -28 103 C-29.68826614 103.68561648 -31.37578432 104.37307799 -33.0625 105.0625 C-37.65048495 106.90058861 -42.2955102 108.48956054 -47 110 C-48.485 110.495 -48.485 110.495 -50 111 C-51.78095732 111.07833316 -53.56479834 111.09705832 -55.34741211 111.08178711 C-56.4438353 111.0752562 -57.54025848 111.06872528 -58.66990662 111.06199646 C-59.86036087 111.05056107 -61.05081512 111.03912567 -62.27734375 111.02734375 C-64.81965998 111.01467366 -67.36197777 111.00231453 -69.90429688 110.99023438 C-73.89482944 110.96674876 -77.88527309 110.93794356 -81.87573242 110.90405273 C-127.35181573 109.85845697 -127.35181573 109.85845697 -167.21875 129.03125 C-175.80571712 138.13087187 -179.50451313 147.50988544 -179.28515625 159.92578125 C-178.81169174 169.96846306 -175.1794714 179.19687139 -167.875 186.125 C-163.70947423 189.53965846 -159.07938303 191.33710675 -154 193 C-152.98164063 193.35835937 -151.96328125 193.71671875 -150.9140625 194.0859375 C-139.1755841 197.35825239 -123.97783702 196.17954891 -112.48828125 192.4609375 C-108.55026411 190.14882069 -105.79326366 187.34037238 -104.3269043 183.01416016 C-103.84980977 180.8888535 -103.49359756 178.78133057 -103.1875 176.625 C-103.06697266 175.88894531 -102.94644531 175.15289062 -102.82226562 174.39453125 C-102.53079777 172.59908929 -102.26292253 170.79984363 -102 169 C-102.969375 169.0721875 -103.93875 169.144375 -104.9375 169.21875 C-114.64190937 169.90337948 -124.27345357 170.11640814 -134 170 C-132.37782564 146.2267551 -132.37782564 146.2267551 -125.79296875 139.19921875 C-120.56168464 135.70029888 -114.89982739 135.66961419 -108.84375 135.5859375 C-107.95564636 135.56652603 -107.06754272 135.54711456 -106.15252686 135.52711487 C-103.26844823 135.46691365 -100.38434401 135.42055829 -97.5 135.375 C-95.51789431 135.33715565 -93.53579789 135.2988229 -91.55371094 135.26000977 C-75.70229748 134.96499924 -59.85377963 134.87761334 -44 135 C-43.72357817 165.80567711 -47.00923432 193.51552193 -69 217 C-69.55945313 217.62648438 -70.11890625 218.25296875 -70.6953125 218.8984375 C-85.4442127 234.64484786 -105.92610295 243.30083812 -126 250 C-127.09183594 250.37640625 -128.18367188 250.7528125 -129.30859375 251.140625 C-152.7649564 258.82723539 -178.12927042 263.08599542 -202.80859375 263.203125 C-203.80539154 263.21013931 -204.80218933 263.21715363 -205.82919312 263.22438049 C-209.03200853 263.24179234 -212.23463898 263.24823333 -215.4375 263.25 C-216.53170258 263.25067474 -217.62590515 263.25134949 -218.75326538 263.25204468 C-242.71658992 263.22857036 -265.93535588 262.07460873 -289 255 C-289.8240332 254.75266113 -290.64806641 254.50532227 -291.49707031 254.25048828 C-316.83975155 246.49580307 -340.8399847 232.26627247 -356 210 C-356.66 209.67 -357.32 209.34 -358 209 C-358 213.95 -358 218.9 -358 224 C-374.16759009 207.83240991 -372.17362955 171.28142944 -372.19042969 150.34985352 C-372.1238537 139.86485942 -371.48544803 129.56489048 -369.5625 119.25 C-369.44068359 118.56035156 -369.31886719 117.87070312 -369.19335938 117.16015625 C-368.56640961 113.69731454 -367.8295502 110.31700276 -366.90234375 106.921875 C-365.96917109 103.16051404 -365.49185837 99.89117463 -366 96 C-368.0603734 93.24215538 -368.0603734 93.24215538 -370.9375 90.875 C-379.06809558 83.38406766 -387.91358974 73.25458777 -389.3984375 61.97265625 C-389.30856447 50.81342156 -386.96068083 45.50740131 -379.3515625 37.296875 C-372.91212019 31.00718716 -368.66055433 28.60798567 -359.625 28.625 C-358.82715088 28.62516113 -358.02930176 28.62532227 -357.20727539 28.62548828 C-348.82312032 28.78451688 -341.31324924 30.8713481 -333.5234375 33.9921875 C-331.12759976 34.8133757 -329.52906248 35.23115087 -327 35 C-324.14748055 33.33526598 -321.70405529 31.37366049 -319.13671875 29.296875 C-301.08638111 16.0794422 -274.78115398 11.51880483 -253.125 8.25 C-252.41655945 8.14260498 -251.7081189 8.03520996 -250.97821045 7.92456055 C-211.37472391 2.04199038 -163.60479119 6.87151899 -127 24 C-129.96213295 25.9747553 -131.87063393 26.61053082 -135.27734375 27.4453125 C-136.33848389 27.71327637 -137.39962402 27.98124023 -138.49291992 28.25732422 C-139.62963135 28.54365723 -140.76634277 28.82999023 -141.9375 29.125 C-167.80187044 35.89955447 -193.10295785 46.27523152 -210 68 C-209.154375 67.21625 -208.30875 66.4325 -207.4375 65.625 C-179.50964425 41.84706659 -139.15907162 28.71307077 -102.85546875 27.30859375 C-99.97411187 26.99720224 -98.5440268 26.27440891 -96 25 C-93.52656395 24.56501642 -91.11542802 24.21328865 -88.625 23.9375 C-87.92544189 23.85443604 -87.22588379 23.77137207 -86.50512695 23.68579102 C-80.61152895 23.0099776 -74.71588294 22.58006705 -68.79296875 22.24609375 C-65.91830588 22.10151288 -65.91830588 22.10151288 -63 21 C-60.80784547 20.88211998 -58.61237425 20.82308063 -56.41723633 20.79467773 C-55.42171501 20.77982834 -55.42171501 20.77982834 -54.40608215 20.76467896 C-52.21476801 20.7331191 -50.02343219 20.70832845 -47.83203125 20.68359375 C-46.31173645 20.66301945 -44.79144731 20.64202285 -43.27116394 20.62062073 C-39.27141913 20.56544916 -35.27162311 20.51601825 -31.27178955 20.46777344 C-27.18961026 20.4175225 -23.10750526 20.36185519 -19.02539062 20.30664062 C-11.0169899 20.19911918 -3.00852701 20.09766089 5 20 C5.02963405 18.55798579 5.0507923 17.11579568 5.06835938 15.67358398 C5.08104858 14.87049301 5.09373779 14.06740204 5.10681152 13.23997498 C4.96762199 10.32099149 4.0840572 8.49578787 2.5 6.0625 C0 2.125 0 2.125 0 0 Z " fill="#1E71AC" transform="translate(596,333)"/>
<path d="M0 0 C2.00777112 -0.00963653 4.01540146 -0.04080552 6.02294922 -0.07226562 C13.99432293 -0.10399249 20.87781558 0.60361745 28.40966797 3.24023438 C29.41658691 3.58634766 29.41658691 3.58634766 30.44384766 3.93945312 C32.13272854 4.54697732 33.80348493 5.20424936 35.47216797 5.86523438 C36.55626953 6.290625 37.64037109 6.71601563 38.75732422 7.15429688 C41.40966797 8.24023438 41.40966797 8.24023438 43.40966797 9.24023438 C41.82947205 14.44656408 39.63081802 19.22396749 37.28466797 24.11523438 C36.91212891 24.89898437 36.53958984 25.68273437 36.15576172 26.49023438 C35.243478 28.40836937 34.32699813 30.32450767 33.40966797 32.24023438 C32.23404297 31.82773437 31.05841797 31.41523438 29.84716797 30.99023438 C12.13801795 25.18896109 -5.04886767 21.94972986 -22.92236328 29.68164062 C-34.51357116 35.96567911 -42.14885815 45.50520639 -46.18579102 58.09765625 C-47.52833936 62.96402091 -47.94315084 67.57941509 -47.90283203 72.61523438 C-47.89719238 73.35765381 -47.89155273 74.10007324 -47.88574219 74.86499023 C-47.69648003 83.4558057 -45.98442523 90.70271691 -40.45361328 97.48242188 C-34.98360945 102.64280284 -28.03673224 105.07781289 -20.59033203 105.24023438 C-19.49205078 105.26730469 -18.39376953 105.294375 -17.26220703 105.32226562 C-10.94156386 105.3962306 -4.83361804 105.23916014 1.40966797 104.24023438 C1.45865234 103.59699219 1.50763672 102.95375 1.55810547 102.29101562 C2.17179685 94.87381468 3.22459392 87.58769348 4.40966797 80.24023438 C-1.20033203 80.24023438 -6.81033203 80.24023438 -12.59033203 80.24023438 C-12.10071724 72.48800019 -11.29439964 65.9085386 -9.59033203 58.24023438 C5.91966797 58.24023438 21.42966797 58.24023438 37.40966797 58.24023438 C35.03466797 72.42773437 35.03466797 72.42773437 34.29882812 76.81518555 C33.28786502 82.86821405 32.29637621 88.92221385 31.37841797 94.99023438 C30.4588093 101.03291123 29.39684452 107.04286181 28.28466797 113.05273438 C28.10291016 114.04337891 27.92115234 115.03402344 27.73388672 116.0546875 C27.29413458 118.45017939 26.8527229 120.84535157 26.40966797 123.24023438 C0.74560752 132.5009702 -29.75709847 136.41940528 -55.11767578 124.59570312 C-64.78711972 119.30081602 -70.81604809 113.12230004 -75.59033203 103.24023438 C-75.89970703 102.60730469 -76.20908203 101.974375 -76.52783203 101.32226562 C-82.53086356 88.24835562 -81.98677794 66.8840106 -77.52783203 53.36523438 C-76.60958395 50.9660235 -75.63195092 48.58851512 -74.59033203 46.24023438 C-74.09404297 45.03625 -73.59775391 43.83226562 -73.08642578 42.59179688 C-65.28703462 25.2639929 -50.21306344 12.12821517 -32.59033203 5.24023438 C-27.66870055 3.59331641 -22.65578786 2.3632079 -17.59033203 1.24023438 C-16.83518311 1.06443848 -16.08003418 0.88864258 -15.30200195 0.70751953 C-10.24556365 -0.16382493 -5.11914022 0.01482019 0 0 Z " fill="#0E4D8D" transform="translate(654.59033203125,441.759765625)"/>
<path d="M0 0 C8.55081932 7.7105654 14.03267066 19.57632732 15.30859375 30.94921875 C15.62997141 44.03196753 12.63885935 56.26552546 3.796875 66.37890625 C3.17167969 67.02214844 2.54648437 67.66539062 1.90234375 68.328125 C1.24621094 69.02292969 0.59007812 69.71773438 -0.0859375 70.43359375 C-10.84594293 80.91820599 -23.0071947 83.62165771 -37.43701172 83.64501953 C-44.34078579 83.54358552 -49.93354971 82.58730777 -56.09765625 79.328125 C-57.38349609 78.67457031 -57.38349609 78.67457031 -58.6953125 78.0078125 C-71.00211255 71.21401338 -78.93904416 60.67945856 -83.09765625 47.328125 C-86.11666041 33.05646897 -83.65093849 20.42435863 -76.04296875 8.12109375 C-68.17493171 -3.17538514 -55.97150287 -10.59317045 -42.53515625 -13.421875 C-25.93961619 -14.62882337 -13.02875015 -10.38418076 0 0 Z " fill="#FBFCFC" transform="translate(342.09765625,393.671875)"/>
<path d="M0 0 C6.76084633 4.66986293 11.18773471 11.63480115 13.89453125 19.30859375 C14.15332031 21.76879883 14.15332031 21.76879883 14.16015625 24.328125 C14.16402344 25.73868164 14.16402344 25.73868164 14.16796875 27.17773438 C14.16023437 28.14904297 14.1525 29.12035156 14.14453125 30.12109375 C14.15613281 31.5606543 14.15613281 31.5606543 14.16796875 33.02929688 C14.12605417 48.38051117 8.38924826 61.42775324 -2.16796875 72.46484375 C-7.56184585 77.62755469 -13.10784119 80.77099255 -20.10546875 83.30859375 C-20.96140625 83.62828125 -21.81734375 83.94796875 -22.69921875 84.27734375 C-35.64028848 88.2935378 -52.08348591 88.56966918 -64.4765625 82.78515625 C-73.56414657 77.6809857 -79.63710465 71.33668996 -83.10546875 61.30859375 C-85.73825818 49.09584796 -84.76906967 36.84656835 -80.10546875 25.30859375 C-79.80511719 24.56222656 -79.50476563 23.81585938 -79.1953125 23.046875 C-73.34630497 10.15880214 -63.07066217 1.69156564 -50.37890625 -3.890625 C-34.69880859 -9.66430437 -14.38996873 -8.73769273 0 0 Z " fill="#0E4C8C" transform="translate(783.10546875,486.69140625)"/>
<path d="M0 0 C1.63485352 -0.01160156 1.63485352 -0.01160156 3.30273438 -0.0234375 C14.20072102 0.00277534 24.93406548 1.45101233 33.51171875 8.81640625 C40.15414527 16.02770557 42.3710105 23.93987408 42.125 33.5625 C42.10961182 34.48748291 42.09422363 35.41246582 42.07836914 36.36547852 C41.66546167 51.02819571 37.15178682 64.88008035 27 75.75 C14.65259377 87.07465421 -1.32380544 90.11024766 -17.65234375 89.53125 C-27.88443485 88.74500607 -36.75908517 84.60544027 -44.1875 77.5 C-51.66103348 66.06988998 -52.70222368 53.61185478 -50.734375 40.35546875 C-47.71574408 27.25186634 -40.65344618 14.89080061 -29.3125 7.25 C-25.73551232 5.30934699 -22.11928869 3.68379778 -18.3125 2.25 C-17.466875 1.88132812 -16.62125 1.51265625 -15.75 1.1328125 C-10.51828988 -0.21078578 -5.3781524 -0.0377635 0 0 Z " fill="#3BB0E1" transform="translate(987.3125,483.75)"/>
<path d="M0 0 C3.97915159 -0.02886984 7.95827653 -0.04675406 11.9375 -0.0625 C13.07380859 -0.07087891 14.21011719 -0.07925781 15.38085938 -0.08789062 C16.46044922 -0.09111328 17.54003906 -0.09433594 18.65234375 -0.09765625 C20.15269165 -0.10551147 20.15269165 -0.10551147 21.68334961 -0.11352539 C24 0 24 0 25 1 C25.42244498 3.62774128 25.78924428 6.24320237 26.12109375 8.8828125 C26.22591568 9.68927216 26.33073761 10.49573181 26.43873596 11.32662964 C26.77565536 13.92558816 27.10669791 16.52525646 27.4375 19.125 C27.65650478 20.82426987 27.87590143 22.52348928 28.09570312 24.22265625 C28.52659506 27.55752532 28.95688462 30.89247057 29.38623047 34.22753906 C29.4889325 35.02502563 29.59163452 35.82251221 29.69744873 36.64416504 C29.89612507 38.1911712 30.093947 39.73828737 30.29083252 41.28552246 C30.55706962 43.37560272 30.82694845 45.46518234 31.09765625 47.5546875 C31.24855713 48.73272949 31.39945801 49.91077148 31.55493164 51.12451172 C31.92726019 54.06077586 31.92726019 54.06077586 33 57 C34.78593634 53.30602879 36.57126452 49.61176437 38.35604858 45.91723633 C38.99268468 44.59947823 39.62942345 43.28176973 40.26626587 41.96411133 C43.61873531 35.02695292 46.96470463 28.08706712 50.2734375 21.12890625 C50.76803467 20.08935791 51.26263184 19.04980957 51.7722168 17.97875977 C52.6951397 16.03627533 53.61597648 14.09279793 54.53442383 12.14819336 C55.3374992 10.4583857 56.15420603 8.7749436 56.98852539 7.1003418 C58.10589651 4.86862939 58.10589651 4.86862939 59.1328125 1.89453125 C61.50962975 -0.51709295 62.55722257 -0.34621469 65.88671875 -0.48828125 C67.82091459 -0.45504764 69.75479669 -0.39542126 71.6875 -0.3125 C72.67556641 -0.28994141 73.66363281 -0.26738281 74.68164062 -0.24414062 C77.12261559 -0.18517988 79.56054868 -0.10295048 82 0 C83.93653431 5.10616098 84.68441884 10.05971864 85.375 15.4375 C86.57355722 24.3746543 88.04125193 33.23761419 89.72998047 42.09545898 C90.78083031 47.8330991 91.17264743 53.16570748 91 59 C91.66 59 92.32 59 93 59 C93.12133301 58.04879272 93.12133301 58.04879272 93.24511719 57.07836914 C94.31597101 52.71148822 96.19803179 48.81936523 98.078125 44.74609375 C98.48657654 43.84939468 98.89502808 42.95269562 99.31585693 42.02882385 C100.62228846 39.16275843 101.93574782 36.29998656 103.25 33.4375 C104.96623859 29.68742593 106.67942719 25.93597048 108.390625 22.18359375 C108.79921753 21.28845062 109.20781006 20.3933075 109.62878418 19.47103882 C112.55770323 13.03180564 115.34025813 6.55593399 118 0 C125.92 0 133.84 0 142 0 C138.62832339 10.11502984 138.62832339 10.11502984 136.25 14.94140625 C135.46955322 16.54000488 135.46955322 16.54000488 134.67333984 18.17089844 C134.1211377 19.29012695 133.56893555 20.40935547 133 21.5625 C131.82364452 23.97437384 130.64868874 26.38685652 129.4765625 28.80078125 C129.18190094 29.40683197 128.88723938 30.01288269 128.58364868 30.63729858 C125.7569602 36.46750836 123.05344677 42.35058059 120.375 48.25 C115.0748762 59.91144387 109.55479928 71.45755994 104 83 C94.43 83 84.86 83 75 83 C74.51789063 80.44507813 74.03578125 77.89015625 73.5390625 75.2578125 C73.06588382 72.75225433 72.59252079 70.24673105 72.11914062 67.74121094 C71.79310198 66.01501027 71.46725158 64.28877403 71.14160156 62.5625 C70.67043114 60.0650077 70.19855825 57.56764894 69.7265625 55.0703125 C69.58376862 54.31259552 69.44097473 53.55487854 69.29385376 52.77420044 C68.23459165 47.17491702 67.12642422 41.58614088 66 36 C65.71407486 36.57407089 65.42814972 37.14814178 65.13356018 37.73960876 C62.16752728 43.69373247 59.19872083 49.64646709 56.22827148 55.59838867 C55.11882905 57.82231425 54.01010358 60.04659764 52.90209961 62.27124023 C51.31290307 65.46171036 49.72116493 68.65090096 48.12890625 71.83984375 C47.63097061 72.84087631 47.13303497 73.84190887 46.62001038 74.87327576 C46.15960861 75.79415482 45.69920685 76.71503387 45.22485352 77.66381836 C44.8184816 78.47878281 44.41210968 79.29374725 43.99342346 80.13340759 C43 82 43 82 42 83 C39.92737924 83.08767112 37.85179706 83.10695873 35.77734375 83.09765625 C34.51728516 83.09443359 33.25722656 83.09121094 31.95898438 83.08789062 C30.61848891 83.07953403 29.27799412 83.07106907 27.9375 83.0625 C26.59310058 83.0574866 25.2486994 83.05292342 23.90429688 83.04882812 C20.60282059 83.03699488 17.30143197 83.02050971 14 83 C9.83674142 63.32312522 6.4523707 43.52884712 3.13822937 23.69511414 C2.40695921 19.33531123 1.62742499 14.98995434 0.79296875 10.6484375 C0.12267125 7.05118601 -0.19857141 3.67357108 0 0 Z " fill="#3CB0E1" transform="translate(1034,486)"/>
<path d="M0 0 C27.06 0 54.12 0 82 0 C81 10 81 10 79 20 C60.19 20 41.38 20 22 20 C21.34 25.61 20.68 31.22 20 37 C18.17204301 50.65591398 18.17204301 50.65591398 17 53 C33.5 53 50 53 67 53 C66.44360217 59.67677395 65.83102244 66.3518205 65 73 C47.84 73 30.68 73 13 73 C12.34 78.61 11.68 84.22 11 90 C10.18071175 95.28070836 9.33791126 100.54629644 8.4375 105.8125 C8.21385048 107.14642704 7.99054273 108.48041143 7.76757812 109.81445312 C6.14882996 119.40468014 6.14882996 119.40468014 5 124 C-3.25 124 -11.5 124 -20 124 C-19.37202586 117.09228448 -18.68972785 110.37789301 -17.5625 103.5625 C-17.44068359 102.80646484 -17.31886719 102.05042969 -17.19335938 101.27148438 C-16.80108858 98.84672244 -16.40075554 96.4233732 -16 94 C-15.84893799 93.07098877 -15.69787598 92.14197754 -15.54223633 91.18481445 C-14.51341883 84.90938837 -13.38656528 78.6587871 -12.19873047 72.41162109 C-10.23352993 62.06679339 -8.44713319 51.73308807 -7.02368164 41.30004883 C-5.90734489 33.15134514 -4.47153332 25.09343328 -3 17 C-2.01 11.39 -1.02 5.78 0 0 Z " fill="#3BAFE0" transform="translate(824,445)"/>
<path d="M0 0 C7.92 0 15.84 0 24 0 C23.41356788 6.45075333 22.8759328 12.30165011 21.6875 18.5625 C20.31775558 25.95706654 19.172968 33.37495948 18.0625 40.8125 C16.90461921 48.50067424 15.65003206 56.13862141 14.0625 63.75 C9.9106075 83.67949795 6.94323843 103.86205286 4 124 C-3.92 124 -11.84 124 -20 124 C-20 119.01626183 -19.82233829 115.11590917 -18.9765625 110.32421875 C-18.76 109.08349609 -18.5434375 107.84277344 -18.3203125 106.56445312 C-18.09085938 105.28505859 -17.86140625 104.00566406 -17.625 102.6875 C-17.40328125 101.41970703 -17.1815625 100.15191406 -16.953125 98.84570312 C-16.0142008 93.513166 -15.05451881 88.18983908 -13.9609375 82.88671875 C-12.76271977 76.99921717 -11.88936247 71.06566336 -11 65.125 C-10.00334909 58.51440138 -9.00109712 51.9048985 -7.9375 45.3046875 C-7.78152344 44.33257324 -7.62554688 43.36045898 -7.46484375 42.35888672 C-7 40 -7 40 -6 38 C-5.66389568 36.18587739 -5.37000963 34.36384484 -5.09765625 32.5390625 C-4.92943359 31.42660156 -4.76121094 30.31414062 -4.58789062 29.16796875 C-4.41451172 27.99878906 -4.24113281 26.82960938 -4.0625 25.625 C-2.77972213 17.06989586 -1.44318625 8.52968378 0 0 Z " fill="#3CB0E1" transform="translate(917,445)"/>
<path d="M0 0 C2.70985203 -0.08068718 5.37767373 -0.02279795 8.0859375 0.09936523 C9.49649414 0.13320313 9.49649414 0.13320313 10.93554688 0.16772461 C13.25811223 0.22667297 15.57747526 0.30888739 17.8984375 0.41186523 C18.2284375 2.06186523 18.5584375 3.71186523 18.8984375 5.41186523 C19.98906494 5.34112793 21.07969238 5.27039063 22.20336914 5.19750977 C36.58216539 4.33708618 50.93881364 4.25838241 65.34008789 4.28149414 C68.70881004 4.28602227 72.07738005 4.28383916 75.44608974 4.27792168 C78.69973976 4.27344453 81.95338023 4.27657249 85.20703125 4.27905273 C86.40903671 4.2770285 87.61104218 4.27500427 88.84947205 4.2729187 C90.52391136 4.27764694 90.52391136 4.27764694 92.23217773 4.2824707 C93.69723 4.28366409 93.69723 4.28366409 95.19187927 4.28488159 C97.86089595 4.4101039 100.28700181 4.87291864 102.8984375 5.41186523 C104.0534375 5.39124023 105.2084375 5.37061523 106.3984375 5.34936523 C109.80929208 5.41027335 111.8635014 5.94038107 114.8984375 7.41186523 C108.31981487 11.79761365 98.87539134 10.62355505 91.21990967 10.80029297 C78.72811978 11.09621798 66.30052242 11.71544977 53.83984375 12.67675781 C43.20094073 13.49270497 32.55973955 13.99846781 21.8984375 14.41186523 C21.71667969 15.19432617 21.53492188 15.97678711 21.34765625 16.78295898 C21.09628906 17.79487305 20.84492187 18.80678711 20.5859375 19.84936523 C20.34230469 20.85870117 20.09867188 21.86803711 19.84765625 22.90795898 C19.53441406 23.73424805 19.22117187 24.56053711 18.8984375 25.41186523 C16.13278368 26.33374984 14.51560048 26.52971745 11.66796875 26.50952148 C10.86552734 26.50629883 10.06308594 26.50307617 9.23632812 26.49975586 C7.98625977 26.4871875 7.98625977 26.4871875 6.7109375 26.47436523 C5.86595703 26.46985352 5.02097656 26.4653418 4.15039062 26.46069336 C2.06637595 26.44891927 -0.01760227 26.43098414 -2.1015625 26.41186523 C-4.0815625 21.46186523 -4.0815625 21.46186523 -6.1015625 16.41186523 C-16.66183763 16.23068404 -27.08037892 16.92858178 -37.6015625 17.72436523 C-38.50086487 17.79122528 -39.40016724 17.85808533 -40.32672119 17.92697144 C-51.89294494 18.79007077 -63.44265598 19.74892743 -74.9765625 20.97436523 C-76.06001953 21.0888501 -77.14347656 21.20333496 -78.25976562 21.32128906 C-84.14248453 21.97839137 -89.92547411 22.86629274 -95.73095703 24.02490234 C-98.1015625 24.41186523 -98.1015625 24.41186523 -102.1015625 24.41186523 C-102.17503906 25.53334961 -102.17503906 25.53334961 -102.25 26.67749023 C-102.32476562 27.66233398 -102.39953125 28.64717773 -102.4765625 29.66186523 C-102.54617188 30.63639648 -102.61578125 31.61092773 -102.6875 32.61499023 C-103.0965976 35.37832871 -103.48560773 37.13910304 -105.1015625 39.41186523 C-108.71390217 41.0546197 -112.94873549 40.52232058 -116.8515625 40.47436523 C-117.89763672 40.46759766 -117.89763672 40.46759766 -118.96484375 40.46069336 C-120.67712053 40.44896544 -122.38935283 40.43103176 -124.1015625 40.41186523 C-125.0915625 37.44186523 -126.0815625 34.47186523 -127.1015625 31.41186523 C-143.96309653 35.59286552 -161.81129577 41.89363407 -175.1015625 53.41186523 C-175.7615625 53.08186523 -176.4215625 52.75186523 -177.1015625 52.41186523 C-164.66937483 40.03235632 -150.96196377 32.25601508 -134.64355469 25.89819336 C-133.21897949 25.32294922 -133.21897949 25.32294922 -131.765625 24.73608398 C-130.91436035 24.40697021 -130.0630957 24.07785645 -129.18603516 23.73876953 C-126.49052169 22.02289747 -126.05413114 20.39837003 -125.1015625 17.41186523 C-123.50038751 15.81069024 -121.77987509 16.26516637 -119.5625 16.23608398 C-109.18101776 16.00795781 -99.12565771 15.49878373 -88.9140625 13.53686523 C-71.45818858 10.19758654 -53.70358109 8.51961902 -35.95336914 7.75708008 C-30.5927865 7.50775065 -25.42561382 6.74005963 -20.1484375 5.80249023 C-15.91831234 5.2601665 -11.8055696 5.49425609 -7.5625 5.82983398 C-6.34433594 5.62293945 -6.34433594 5.62293945 -5.1015625 5.41186523 C-4.70582031 4.58944336 -4.31007813 3.76702148 -3.90234375 2.91967773 C-2.1015625 0.41186523 -2.1015625 0.41186523 0 0 Z " fill="#F3F9FC" transform="translate(566.1015625,369.588134765625)"/>
<path d="M0 0 C0.65613281 0.23332031 1.31226563 0.46664063 1.98828125 0.70703125 C9.2802378 3.80788267 13.97733161 9.64995548 18 16.3125 C19.64209294 22.3677177 20.46904273 29.05370759 17.6015625 34.8046875 C16 37 16 37 14 38 C8.35414443 38.53671753 4.27774251 38.23675639 -0.82421875 35.6796875 C-7.10035301 33.71909978 -15.4874118 33.92317649 -21.5 36.5 C-25.32083562 38.13750098 -28.54510158 38.41037472 -32.625 38.5 C-33.89601563 38.5309375 -35.16703125 38.561875 -36.4765625 38.59375 C-40.82866812 37.86035748 -42.22781299 36.33899105 -45 33 C-45.33 32.67 -45.66 32.34 -46 32 C-47.01557966 23.6089812 -45.16877569 17.34655072 -40.234375 10.578125 C-36.07206358 5.56368684 -32.12120776 2.25190773 -26 0 C-24.906875 -0.4125 -23.81375 -0.825 -22.6875 -1.25 C-15.04672359 -2.80405622 -7.37268961 -2.62984598 0 0 Z " fill="#F7F9FB" transform="translate(383,461)"/>
<path d="M0 0 C4.36140611 4.4196877 6.23671523 8.73055937 6.31005859 14.828125 C6.29152832 15.53324219 6.27299805 16.23835937 6.25390625 16.96484375 C6.24182129 17.70734375 6.22973633 18.44984375 6.21728516 19.21484375 C5.84945334 29.54088588 2.50589274 38.86643421 -4.24609375 46.77734375 C-10.56106481 51.90825774 -16.63357999 53.25639763 -24.625 53.09375 C-29.53706772 52.50078803 -32.12646121 49.89697629 -35.49609375 46.52734375 C-39.96527598 39.5043431 -40.19426554 31.02191896 -38.74609375 23.01171875 C-36.22365645 12.74998519 -32.01165002 4.9237099 -23.24609375 -1.22265625 C-15.77414565 -5.04165194 -6.9662962 -4.46866085 0 0 Z " fill="#FBFCFD" transform="translate(999.24609375,503.22265625)"/>
<path d="M0 0 C3.24931927 -0.17455021 6.49743448 -0.28091753 9.75 -0.375 C10.67039062 -0.42527344 11.59078125 -0.47554688 12.5390625 -0.52734375 C15.15530323 -0.58421855 17.44540138 -0.57735069 20 0 C22.359375 3.01171875 22.359375 3.01171875 24 6 C26.21811655 6.60979364 26.21811655 6.60979364 28.5 6.1875 C32.77845686 5.87031621 32.77845686 5.87031621 35.5625 7.5 C36.036875 7.995 36.51125 8.49 37 9 C35.58521865 9.64995297 34.16808513 10.29478722 32.75 10.9375 C31.96109375 11.29714844 31.1721875 11.65679687 30.359375 12.02734375 C28 13 28 13 25.84375 13.3125 C23.75096174 13.86521499 23.75096174 13.86521499 22.734375 16.28515625 C22.40953125 17.20167969 22.0846875 18.11820312 21.75 19.0625 C21.1725 20.691875 20.595 22.32125 20 24 C13.4 24 6.8 24 0 24 C-0.99 22.02 -1.98 20.04 -3 18 C-12.80806044 17.73522965 -22.34866033 18.51362709 -32.0625 19.75 C-32.78610718 19.84025452 -33.50971436 19.93050903 -34.25524902 20.02349854 C-59.00660545 23.1254268 -83.46999448 27.91547015 -106 39 C-106.64163086 39.31195313 -107.28326172 39.62390625 -107.94433594 39.9453125 C-117.05407162 44.42506258 -125.08643201 49.63377771 -133 56 C-133 49.78511203 -125.81228648 44.81826762 -121.6328125 40.625 C-111.26802282 30.83791991 -99.3597004 24.66233999 -86 20 C-85.30680664 19.75008301 -84.61361328 19.50016602 -83.89941406 19.24267578 C-58.05944115 10.08545392 -30.18137263 8.21203489 -3 7 C-2.01 4.69 -1.02 2.38 0 0 Z " fill="#F5FAFC" transform="translate(528,402)"/>
<path d="M0 0 C5.89233905 6.19451029 5.40746962 12.19212177 5.27734375 20.296875 C4.8964522 29.74904947 1.64699882 38.18887775 -5 45 C-11.70197325 50.56604558 -18.58962456 50.70431715 -27 50 C-31.28363838 48.27151434 -33.20500989 46.13971566 -35.375 42.1875 C-39.00445762 32.91560827 -37.95815352 21.95175301 -34.45703125 12.796875 C-31.20855793 6.56119968 -26.54699703 0.67784391 -19.9375 -2.125 C-12.99966343 -4.04836063 -6.33266652 -3.56651285 0 0 Z " fill="#FAFBFC" transform="translate(764,503)"/>
<path d="M0 0 C4.07733699 3.00343453 7.21919777 6.52868707 8.82421875 11.34375 C9.50205151 18.42226063 9.82273169 24.79147394 5.45703125 30.69140625 C0.67885212 35.52674064 -4.99464298 38.424738 -11.80078125 38.78125 C-17.88580838 38.72787257 -21.66548482 36.24529477 -26.17578125 32.34375 C-31.31204543 26.81238857 -32.65872911 22.54706864 -32.48046875 15.08984375 C-31.69895178 8.0461716 -27.32381658 4.2109839 -22.17578125 -0.2734375 C-15.82273157 -4.66597575 -6.44312777 -3.65938291 0 0 Z " fill="#0F4E8D" transform="translate(335.17578125,410.65625)"/>
<path d="M0 0 C0.33 0.66 0.66 1.32 1 2 C-0.03426697 4.58869161 -1.12754667 7.0152882 -2.375 9.5 C-2.7356958 10.22106934 -3.0963916 10.94213867 -3.46801758 11.68505859 C-6.27341506 17.06703813 -9.54458127 21.45465818 -13.82421875 25.7890625 C-16.1207249 28.04157724 -16.1207249 28.04157724 -18.33203125 30.9609375 C-21.11803334 34.34176413 -24.34140966 36.6324262 -28 39 C-28.65355469 39.42933838 -29.30710937 39.85867676 -29.98046875 40.30102539 C-36.05709684 44.20249683 -42.34224661 47.19870124 -49 50 C-50.7634375 50.8353125 -50.7634375 50.8353125 -52.5625 51.6875 C-57.60531502 53.61293846 -62.73659776 54.83035506 -68 56 C-68.85722656 56.20882812 -69.71445312 56.41765625 -70.59765625 56.6328125 C-93.53888035 61.43053536 -119.83085321 58.56355829 -139.9375 46.125 C-141.4534375 45.073125 -141.4534375 45.073125 -143 44 C-141 43 -141 43 -138.92578125 43.671875 C-138.06339844 44.02765625 -137.20101563 44.3834375 -136.3125 44.75 C-123.74970963 49.49179596 -111.29034158 50.58622516 -98 50.5 C-97.23886902 50.49757294 -96.47773804 50.49514587 -95.69354248 50.49264526 C-65.71801657 50.30824915 -36.72235184 41.44115634 -15 20 C-8.93760602 13.85912842 -4.11785373 7.58976963 0 0 Z " fill="#EEF4F8" transform="translate(522,512)"/>
<path d="M0 0 C0.97646484 -0.01160156 1.95292969 -0.02320313 2.95898438 -0.03515625 C8.42441518 -0.01292399 12.32066824 0.34215329 17.0625 3.375 C17.63186562 7.19788347 17.6784069 9.31099851 15.71484375 12.703125 C11.75246975 17.96306762 7.85346196 22.74317301 1.0625 23.875 C-6.62783546 22.59327742 -9.98254126 17.07465419 -14.3984375 11.12890625 C-16.06748555 8.14241165 -16.70752744 6.7173655 -15.9375 3.375 C-11.62783485 -0.86978847 -5.64629376 -0.06682004 0 0 Z " fill="#115290" transform="translate(371.9375,464.625)"/>
<path d="M0 0 C1.28970703 0.16048828 1.28970703 0.16048828 2.60546875 0.32421875 C3.45753906 0.42347656 4.30960937 0.52273438 5.1875 0.625 C7.74452597 1.00452859 10.26350319 1.48039474 12.79296875 2.01171875 C13.36626718 17.12981066 13.36626718 17.12981066 9.79296875 24.01171875 C6.07238515 26.49210782 4.19500304 26.47509078 -0.20703125 26.01171875 C-2.40625 24.62109375 -2.40625 24.62109375 -4.20703125 22.01171875 C-4.75029414 18.62574811 -4.67395858 15.30738305 -4.58203125 11.88671875 C-4.58074219 10.96761719 -4.57945312 10.04851563 -4.578125 9.1015625 C-4.45815287 0.02367161 -4.45815287 0.02367161 0 0 Z " fill="#F6F8FA" transform="translate(379.20703125,501.98828125)"/>
<path d="M0 0 C2.4316323 2.4316323 1.28178593 8.61111815 1.3125 11.875 C1.34150391 12.89464844 1.37050781 13.91429687 1.40039062 14.96484375 C1.40876953 15.94324219 1.41714844 16.92164063 1.42578125 17.9296875 C1.44036377 18.82929199 1.45494629 19.72889648 1.4699707 20.65576172 C1 23 1 23 -0.80786133 24.78955078 C-4.04040164 26.57448617 -6.37432574 26.45320928 -10 26 C-13.34830684 23.73763051 -14.72035679 21.12321882 -15.6953125 17.21484375 C-16.34327442 12.50465899 -16.14014827 7.74168324 -16 3 C-10.30316864 0.55850085 -6.19799214 -0.43494682 0 0 Z " fill="#F8FAFC" transform="translate(369,502)"/>
<path d="M0 0 C2.64421324 1.20639151 5.21873842 1.65398727 8.09765625 1.95703125 C8.09765625 2.28703125 8.09765625 2.61703125 8.09765625 2.95703125 C6.44765625 2.95703125 4.79765625 2.95703125 3.09765625 2.95703125 C3.59265625 4.44203125 3.59265625 4.44203125 4.09765625 5.95703125 C3.02644531 5.87324219 1.95523437 5.78945313 0.8515625 5.703125 C-0.54555241 5.59998229 -1.94268899 5.49713282 -3.33984375 5.39453125 C-4.04689453 5.33845703 -4.75394531 5.28238281 -5.48242188 5.22460938 C-7.28662212 5.09512132 -9.09466327 5.02181517 -10.90234375 4.95703125 C-12.52014532 6.57483282 -12.12506522 8.41338643 -12.21875 10.6484375 C-12.26064453 11.59267578 -12.30253906 12.53691406 -12.34570312 13.50976562 C-12.38501953 14.50298828 -12.42433594 15.49621094 -12.46484375 16.51953125 C-12.50802734 17.51662109 -12.55121094 18.51371094 -12.59570312 19.54101562 C-12.70214673 22.01287275 -12.80416303 24.48483435 -12.90234375 26.95703125 C-13.23234375 26.95703125 -13.56234375 26.95703125 -13.90234375 26.95703125 C-14.23234375 25.30703125 -14.56234375 23.65703125 -14.90234375 21.95703125 C-15.56234375 23.27703125 -16.22234375 24.59703125 -16.90234375 25.95703125 C-16.9273999 25.39193848 -16.95245605 24.8268457 -16.97827148 24.24462891 C-17.09414331 21.69019383 -17.21690912 19.13613575 -17.33984375 16.58203125 C-17.37916016 15.69257812 -17.41847656 14.803125 -17.45898438 13.88671875 C-17.52182617 12.61054688 -17.52182617 12.61054688 -17.5859375 11.30859375 C-17.62259521 10.52307129 -17.65925293 9.73754883 -17.69702148 8.92822266 C-17.79323475 6.88179629 -17.79323475 6.88179629 -18.90234375 4.95703125 C-21.2583361 4.48951337 -21.2583361 4.48951337 -23.96484375 4.33203125 C-24.88394531 4.25726563 -25.80304688 4.1825 -26.75 4.10546875 C-27.46027344 4.05648438 -28.17054688 4.0075 -28.90234375 3.95703125 C-28.71484375 1.58203125 -28.71484375 1.58203125 -27.90234375 -1.04296875 C-19.59542491 -5.55155667 -8.18015793 -3.86474907 0 0 Z " fill="#125693" transform="translate(387.90234375,498.04296875)"/>
<path d="M0 0 C4.12751449 0.60698743 7.3321148 2.03810791 11 4 C9.45454854 9.47932789 6.84456788 14.11429181 4 19 C0.23845262 17.74615087 -1.27191198 15.85799698 -4 13 C-4.928125 12.071875 -5.85625 11.14375 -6.8125 10.1875 C-7.534375 9.465625 -8.25625 8.74375 -9 8 C-8.51789063 7.67386719 -8.03578125 7.34773438 -7.5390625 7.01171875 C-6.90742188 6.57472656 -6.27578125 6.13773437 -5.625 5.6875 C-4.99851563 5.25824219 -4.37203125 4.82898438 -3.7265625 4.38671875 C-1.73621155 2.93079661 -1.73621155 2.93079661 0 0 Z " fill="#F4F7F9" transform="translate(239,382)"/>
<path d="M0 0 C7.60628324 -0.02319967 15.21256281 -0.04095394 22.81887341 -0.05181217 C26.35102274 -0.05702433 29.88314782 -0.06409164 33.4152832 -0.07543945 C37.47868072 -0.08841195 41.54205286 -0.093242 45.60546875 -0.09765625 C46.8702153 -0.10281754 48.13496185 -0.10797882 49.43803406 -0.11329651 C50.61888077 -0.11337204 51.79972748 -0.11344757 53.01635742 -0.11352539 C54.05338303 -0.115746 55.09040863 -0.11796661 56.15885925 -0.12025452 C58.88447799 -0.0048896 61.3362141 0.44447183 64 1 C65.155 0.979375 66.31 0.95875 67.5 0.9375 C70.91085458 0.99840812 72.9650639 1.52851583 76 3 C68.82224878 7.78516748 58.36847215 6.09806803 50 6 C50 5.67 50 5.34 50 5 C52.64 4.67 55.28 4.34 58 4 C58 3.67 58 3.34 58 3 C38.86 2.34 19.72 1.68 0 1 C0 0.67 0 0.34 0 0 Z " fill="#81D0EF" transform="translate(605,374)"/>
<path d="M0 0 C0.66022156 0.0028299 1.32044312 0.00565979 2.00067139 0.00857544 C4.09959397 0.01972835 6.19808242 0.04482304 8.296875 0.0703125 C9.72395215 0.08034866 11.15103602 0.0894734 12.578125 0.09765625 C16.06800823 0.11794627 19.55695838 0.15710173 23.046875 0.1953125 C23.046875 6.7953125 23.046875 13.3953125 23.046875 20.1953125 C22.056875 20.6903125 22.056875 20.6903125 21.046875 21.1953125 C21.046875 14.9253125 21.046875 8.6553125 21.046875 2.1953125 C10.486875 2.1953125 -0.073125 2.1953125 -10.953125 2.1953125 C-6.67148008 0.05449004 -4.69529104 -0.0397906 0 0 Z " fill="#4BA5D1" transform="translate(528.953125,467.8046875)"/>
<path d="M0 0 C2.9375 0.8125 2.9375 0.8125 4.9375 2.8125 C5.30237512 5.65852594 5.33949375 7.1989306 3.75 9.625 C1.28842224 11.23775784 -0.17315736 11.2459014 -3.0625 10.8125 C-4.875 9.625 -4.875 9.625 -6.0625 7.8125 C-6.4943188 4.93370803 -6.44207373 3.44512288 -4.9375 0.9375 C-3.0625 -0.1875 -3.0625 -0.1875 0 0 Z " fill="#EBEFF4" transform="translate(329.0625,416.1875)"/>
<path d="M0 0 C3 3 3 3 3.36328125 5.48828125 C3.26974526 10.69032116 3.10105303 15.14131486 1 20 C0.67 20 0.34 20 0 20 C0 13.4 0 6.8 0 0 Z " fill="#003F7D" transform="translate(371,504)"/>
<path d="M0 0 C0.66 0.33 1.32 0.66 2 1 C0.84371094 2.12148438 0.84371094 2.12148438 -0.3359375 3.265625 C-1.34922356 4.26014651 -2.36222975 5.25495323 -3.375 6.25 C-3.88289063 6.74113281 -4.39078125 7.23226563 -4.9140625 7.73828125 C-7.55024144 10.33977362 -9.47083656 12.63584043 -11 16 C-13.125 17.25 -13.125 17.25 -15 18 C-11.76869896 10.87213005 -5.53174141 5.39682089 0 0 Z " fill="#E2EFF5" transform="translate(409,440)"/>
<path d="M0 0 C0.66 0.33 1.32 0.66 2 1 C2 1.99 2 2.98 2 4 C1.40832031 4.31453125 0.81664062 4.6290625 0.20703125 4.953125 C-4.18648236 7.33264624 -8.21154795 9.70038047 -12 13 C-12.66 12.67 -13.32 12.34 -14 12 C-12.23139162 10.37251997 -10.46024324 8.74796543 -8.6875 7.125 C-8.18798828 6.66480469 -7.68847656 6.20460938 -7.17382812 5.73046875 C-4.85790957 3.61393392 -2.61710426 1.74473617 0 0 Z " fill="#D7E7EF" transform="translate(403,410)"/>
<path d="M0 0 C0.66 0.33 1.32 0.66 2 1 C0.84906278 4.45281166 -0.3205993 5.38082163 -3.0625 7.6875 C-3.79597656 8.31011719 -4.52945312 8.93273437 -5.28515625 9.57421875 C-5.85105469 10.04472656 -6.41695313 10.51523437 -7 11 C-7.66 10.67 -8.32 10.34 -9 10 C-6.03 6.7 -3.06 3.4 0 0 Z " fill="#C4DAE9" transform="translate(394,391)"/>
<path d="M0 0 C0.99 0.33 1.98 0.66 3 1 C-0.63 3.31 -4.26 5.62 -8 8 C-5.79795605 3.59591211 -4.23481604 2.33347006 0 0 Z " fill="#2587BD" transform="translate(406,406)"/>
<path d="M0 0 C0.33 0.66 0.66 1.32 1 2 C0.22265625 4.1640625 0.22265625 4.1640625 -0.9375 6.625 C-1.31777344 7.44226563 -1.69804688 8.25953125 -2.08984375 9.1015625 C-2.39019531 9.72804688 -2.69054687 10.35453125 -3 11 C-3.66 10.67 -4.32 10.34 -5 10 C-3.66511872 6.40608886 -2.03977277 3.24509304 0 0 Z " fill="#BDDBEB" transform="translate(522,512)"/>
<path d="M0 0 C0.33 0 0.66 0 1 0 C1 4.29 1 8.58 1 13 C0.01 12.01 -0.98 11.02 -2 10 C-2 9.34 -2 8.68 -2 8 C-1.34 8 -0.68 8 0 8 C0 5.36 0 2.72 0 0 Z " fill="#1A619C" transform="translate(237,544)"/>
<path d="M0 0 C0.66 0.33 1.32 0.66 2 1 C-0.64 2.98 -3.28 4.96 -6 7 C-6.66 6.67 -7.32 6.34 -8 6 C-7.01 5.67 -6.02 5.34 -5 5 C-4.67 4.01 -4.34 3.02 -4 2 C-2.0625 0.75 -2.0625 0.75 0 0 Z " fill="#135B95" transform="translate(407,379)"/>
<path d="M0 0 C0.33 0 0.66 0 1 0 C1.25 7.625 1.25 7.625 -1 11 C-2.60080151 6.99799622 -1.29279692 3.95443764 0 0 Z " fill="#4FA8D2" transform="translate(550,493)"/>
<path d="M0 0 C0.66 0.33 1.32 0.66 2 1 C0.15794162 3.54379491 -1.72478134 5.83312509 -4 8 C-4.66 7.67 -5.32 7.34 -6 7 C-4.02 4.69 -2.04 2.38 0 0 Z " fill="#EBF2F7" transform="translate(401,385)"/>
</svg>
